<svg width="225" height="45" viewBox="0 0 225 45" fill="none" xmlns="http://www.w3.org/2000/svg">
<path fill-rule="evenodd" clip-rule="evenodd" d="M22.4403 40.88C32.6546 40.88 40.935 32.6107 40.935 22.4101C40.935 12.2095 32.6546 3.94024 22.4403 3.94024C12.2259 3.94024 3.94554 12.2095 3.94554 22.4101C3.94554 32.6107 12.2259 40.88 22.4403 40.88ZM22.4403 44.8202C34.8337 44.8202 44.8805 34.7869 44.8805 22.4101C44.8805 10.0333 34.8337 0 22.4403 0C10.0468 0 0 10.0333 0 22.4101C0 34.7869 10.0468 44.8202 22.4403 44.8202Z" fill="#D74949"/>
<path fill-rule="evenodd" clip-rule="evenodd" d="M22.195 29.5518C26.2807 29.5518 29.5929 26.2441 29.5929 22.1639C29.5929 18.0836 26.2807 14.7759 22.195 14.7759C18.1093 14.7759 14.7971 18.0836 14.7971 22.1639C14.7971 26.2441 18.1093 29.5518 22.195 29.5518ZM22.195 33.4921C28.4598 33.4921 33.5384 28.4203 33.5384 22.1639C33.5384 15.9075 28.4598 10.8357 22.195 10.8357C15.9302 10.8357 10.8516 15.9075 10.8516 22.1639C10.8516 28.4203 15.9302 33.4921 22.195 33.4921Z" fill="#D74949"/>
<rect x="40.9297" y="22.1641" width="3.94554" height="22.6564" fill="#D74949"/>
<path d="M82.2753 30.9082H69.1067L65.6801 38.3689H60.6797L75.9002 5.7207L90.5828 38.3689H85.5026L82.2753 30.9082ZM80.3827 26.5511L75.8205 16.1061L71.0392 26.5511H80.3827Z" fill="white"/>
<path d="M108.871 22.3731H121.582V23.3878C121.582 25.6956 121.309 27.7382 120.765 29.5155C120.234 31.1602 119.337 32.6988 118.075 34.1312C115.22 37.341 111.587 38.9459 107.178 38.9459C102.875 38.9459 99.1891 37.3941 96.1211 34.2904C93.0531 31.1735 91.5191 27.4331 91.5191 23.0694C91.5191 18.6129 93.0797 14.8328 96.2008 11.7291C99.3219 8.61216 103.12 7.05369 107.596 7.05369C110 7.05369 112.245 7.54444 114.33 8.52594C116.322 9.50745 118.281 11.0991 120.207 13.3008L116.9 16.4642C114.376 13.1085 111.302 11.4307 107.676 11.4307C104.422 11.4307 101.693 12.5514 99.488 14.793C97.2832 16.9947 96.1809 19.7535 96.1809 23.0694C96.1809 26.4914 97.4094 29.3099 99.8665 31.5249C102.164 33.5808 104.654 34.6087 107.337 34.6087C109.622 34.6087 111.674 33.8394 113.493 32.3009C115.313 30.749 116.329 28.8921 116.541 26.7302H108.871V22.3731Z" fill="white"/>
<path d="M137.858 25.2778L147.381 38.3689H141.703L132.917 25.7951H132.081V38.3689H127.439V7.65055H132.877C136.942 7.65055 139.877 8.4132 141.683 9.93851C143.675 11.6362 144.671 13.8778 144.671 16.6631C144.671 18.8384 144.047 20.7085 142.799 22.2736C141.55 23.8387 139.903 24.8401 137.858 25.2778ZM132.081 21.7563H133.555C137.951 21.7563 140.149 20.0785 140.149 16.7228C140.149 13.5794 138.011 12.0076 133.734 12.0076H132.081V21.7563Z" fill="white"/>
<path d="M168.996 12.0076H156.664V19.3888H168.638V23.7459H156.664V34.0119H168.996V38.3689H152.023V7.65055H168.996V12.0076Z" fill="white"/>
<path d="M183.579 12.0076V38.3689H178.937V12.0076H171.865V7.65055H190.632V12.0076H183.579Z" fill="white"/>
<path d="M199.417 7.65055V38.3689H194.775V7.65055H199.417Z" fill="white"/>
<path d="M224.2 12.2265L220.435 14.4548C219.731 13.2345 219.06 12.4387 218.423 12.0673C217.759 11.6429 216.902 11.4307 215.853 11.4307C214.565 11.4307 213.496 11.7954 212.646 12.5249C211.796 13.2411 211.371 14.1431 211.371 15.2307C211.371 16.7295 212.486 17.9364 214.717 18.8516L217.785 20.105C220.282 21.1131 222.109 22.3466 223.264 23.8056C224.42 25.2513 224.997 27.0286 224.997 29.1375C224.997 31.9626 224.054 34.297 222.168 36.1407C220.269 37.9976 217.912 38.926 215.096 38.926C212.426 38.926 210.222 38.1368 208.482 36.5585C206.769 34.9801 205.699 32.7585 205.274 29.8935L209.976 28.859C210.188 30.6628 210.56 31.9096 211.092 32.5993C212.048 33.9256 213.442 34.5888 215.275 34.5888C216.723 34.5888 217.925 34.1047 218.881 33.1365C219.837 32.1682 220.316 30.9413 220.316 29.4558C220.316 28.859 220.229 28.3152 220.057 27.8244C219.897 27.3204 219.638 26.8628 219.28 26.4516C218.934 26.0272 218.483 25.6359 217.925 25.2778C217.367 24.9064 216.703 24.5549 215.933 24.2234L212.964 22.9898C208.754 21.2125 206.649 18.6129 206.649 15.1909C206.649 12.883 207.532 10.9532 209.299 9.40134C211.065 7.83624 213.263 7.05369 215.893 7.05369C219.439 7.05369 222.208 8.77795 224.2 12.2265Z" fill="white"/>
</svg>
