<svg width="24" height="24" viewBox="0 0 24 24" fill="none" xmlns="http://www.w3.org/2000/svg">
<g clip-path="url(#clip0_7354_262)">
<path d="M17.5898 15.6977C17.3808 15.488 17.1324 15.3215 16.8589 15.208C16.5854 15.0944 16.2922 15.036 15.9961 15.036C15.6999 15.036 15.4067 15.0944 15.1332 15.208C14.8597 15.3215 14.6114 15.488 14.4023 15.6977L13.3148 16.7852C12.0904 16.0081 10.9559 15.0976 9.93232 14.0702C8.90717 13.0447 7.9968 11.9105 7.21732 10.6877L8.30482 9.60023C8.51458 9.3912 8.68101 9.14281 8.79457 8.86932C8.90814 8.59583 8.96659 8.30261 8.96659 8.00648C8.96659 7.71035 8.90814 7.41713 8.79457 7.14364C8.68101 6.87015 8.51458 6.62176 8.30482 6.41273L6.18232 4.29773C5.97624 4.08728 5.72995 3.9204 5.4581 3.80702C5.18624 3.69364 4.89437 3.63607 4.59982 3.63773C4.30318 3.637 4.00933 3.69494 3.73516 3.80821C3.461 3.92148 3.21194 4.08784 3.00232 4.29773L1.98232 5.31023C1.49615 5.83296 1.1333 6.45799 0.920443 7.13938C0.707588 7.82078 0.650139 8.54121 0.752319 9.24773C0.992319 12.0602 2.83732 15.4427 5.67982 18.2927C8.52232 21.1427 11.9423 22.9802 14.7548 23.2502C14.9647 23.2614 15.175 23.2614 15.3848 23.2502C15.9902 23.2756 16.5946 23.1799 17.1626 22.9687C17.7305 22.7575 18.2506 22.4351 18.6923 22.0202L19.7048 21.0002C19.9147 20.7906 20.0811 20.5415 20.1943 20.2674C20.3076 19.9932 20.3655 19.6994 20.3648 19.4027C20.3665 19.1082 20.3089 18.8163 20.1955 18.5445C20.0821 18.2726 19.9153 18.0263 19.7048 17.8202L17.5898 15.6977ZM18.6473 19.9427L17.6273 20.9552C17.2502 21.2695 16.8099 21.4992 16.3363 21.6286C15.8627 21.758 15.3669 21.7841 14.8823 21.7052C12.4448 21.4952 9.33982 19.7702 6.77482 17.2052C4.20982 14.6402 2.48482 11.5577 2.25232 9.12023C2.17144 8.63567 2.19661 8.13932 2.32609 7.66543C2.45557 7.19153 2.68628 6.75135 3.00232 6.37523L4.05982 5.35523C4.1299 5.28572 4.21301 5.23073 4.30439 5.1934C4.39577 5.15608 4.49361 5.13716 4.59232 5.13773C4.69102 5.13716 4.78887 5.15608 4.88025 5.1934C4.97163 5.23073 5.05474 5.28572 5.12482 5.35523L7.24732 7.50023C7.38701 7.64075 7.46541 7.83084 7.46541 8.02898C7.46541 8.22712 7.38701 8.41721 7.24732 8.55773L5.74732 10.0577C5.62994 10.1745 5.55452 10.3269 5.53281 10.491C5.5111 10.6552 5.54433 10.8219 5.62732 10.9652C6.52536 12.4941 7.61687 13.9007 8.87482 15.1502C10.1244 16.4082 11.531 17.4997 13.0598 18.3977C13.2031 18.4807 13.3698 18.5139 13.534 18.4922C13.6982 18.4705 13.8505 18.3951 13.9673 18.2777L15.4673 16.7777C15.6078 16.638 15.7979 16.5596 15.9961 16.5596C16.1942 16.5596 16.3843 16.638 16.5248 16.7777L18.6473 18.9002C18.7168 18.9703 18.7718 19.0534 18.8091 19.1448C18.8465 19.2362 18.8654 19.334 18.8648 19.4327C18.8601 19.6243 18.7823 19.8068 18.6473 19.9427Z" fill="#D74949"/>
<path d="M19.95 4.04252C18.9077 2.99625 17.6686 2.16665 16.3041 1.60156C14.9397 1.03647 13.4768 0.747059 12 0.750023C11.8011 0.750023 11.6103 0.82904 11.4697 0.969692C11.329 1.11034 11.25 1.30111 11.25 1.50002C11.25 1.69893 11.329 1.8897 11.4697 2.03035C11.6103 2.171 11.8011 2.25002 12 2.25002C13.2874 2.24998 14.562 2.50488 15.7503 3.00001C16.9387 3.49514 18.0172 4.22071 18.9236 5.13484C19.8301 6.04897 20.5465 7.13356 21.0316 8.32602C21.5167 9.51848 21.7609 10.7952 21.75 12.0825C21.75 12.2814 21.829 12.4722 21.9697 12.6129C22.1103 12.7535 22.3011 12.8325 22.5 12.8325C22.6989 12.8325 22.8897 12.7535 23.0303 12.6129C23.171 12.4722 23.25 12.2814 23.25 12.0825C23.2644 10.59 22.9798 9.10965 22.413 7.72882C21.8463 6.34799 21.0088 5.09459 19.95 4.04252Z" fill="#D74949"/>
<path d="M15.6803 8.33273C16.106 8.7558 16.4427 9.25973 16.6706 9.81486C16.8986 10.37 17.0133 10.9651 17.0078 11.5652C17.0078 11.7641 17.0868 11.9549 17.2275 12.0956C17.3681 12.2362 17.5589 12.3152 17.7578 12.3152C17.9567 12.3152 18.1475 12.2362 18.2881 12.0956C18.4288 11.9549 18.5078 11.7641 18.5078 11.5652C18.5177 10.771 18.3699 9.98273 18.0728 9.24609C17.7757 8.50946 17.3353 7.83915 16.7772 7.27403C16.219 6.70891 15.5543 6.26023 14.8214 5.95402C14.0885 5.64782 13.3021 5.49017 12.5078 5.49023C12.3089 5.49023 12.1181 5.56925 11.9775 5.7099C11.8368 5.85056 11.7578 6.04132 11.7578 6.24023C11.7578 6.43915 11.8368 6.62991 11.9775 6.77056C12.1181 6.91122 12.3089 6.99023 12.5078 6.99023C13.0989 6.99469 13.6833 7.11554 14.2276 7.34589C14.772 7.57624 15.2656 7.91157 15.6803 8.33273Z" fill="#D74949"/>
</g>
<defs>
<clipPath id="clip0_7354_262">
<rect width="24" height="24" fill="white"/>
</clipPath>
</defs>
</svg>
