<svg width="50" height="50" viewBox="0 0 50 50" fill="none" xmlns="http://www.w3.org/2000/svg">
<g clip-path="url(#clip0_7354_325)">
<path d="M29.9273 23.8066C30.747 22.8368 31.2391 21.5818 31.2287 20.2134C31.2058 17.1719 28.6686 14.7461 25.627 14.7461H25.5593V13.3227C25.5593 12.5339 24.9531 11.8552 24.1652 11.8181C23.324 11.7784 22.6296 12.4487 22.6296 13.2813V14.7461H20.6133C19.8043 14.7461 19.1484 15.402 19.1484 16.211V33.7862C19.1484 34.5965 19.8058 35.2528 20.616 35.2511C21.3168 35.2495 22.1132 35.2476 22.6297 35.2455V36.6775C22.6297 37.4662 23.2358 38.1449 24.0237 38.182C24.8649 38.2217 25.5594 37.5514 25.5594 36.7189V35.2351C25.9967 35.2338 26.3662 35.2331 26.6111 35.2331C30.0277 35.2331 32.8074 32.4534 32.8074 29.0367C32.8073 26.8395 31.6566 24.907 29.9273 23.8066ZM22.078 17.6758H25.7191C27.1417 17.6758 28.2991 18.8331 28.2991 20.2557C28.2991 21.6782 27.1417 22.8356 25.7191 22.8356C25.3453 22.8356 22.078 22.8403 22.078 22.8403V17.6758ZM26.6109 32.3033C25.7882 32.3033 23.575 32.3118 22.078 32.318V25.777C22.63 25.7747 26.6109 25.77 26.6109 25.77C28.4121 25.77 29.8775 27.2355 29.8775 29.0366C29.8776 30.8379 28.4122 32.3033 26.6109 32.3033Z" fill="#A6CB4B"/>
<path d="M48.5352 18.6523C47.7262 18.6523 47.0703 19.3082 47.0703 20.1172V23.5352H43.9872C43.7095 19.9014 42.4063 16.5503 40.3688 13.7695H45.6055C46.4145 13.7695 47.0703 13.1137 47.0703 12.3047V8.53711C48.7753 7.93242 50 6.3042 50 4.39453C50 1.97139 48.0286 0 45.6055 0C43.1823 0 41.2109 1.97139 41.2109 4.39453C41.2109 6.3042 42.4356 7.93242 44.1406 8.53711V10.8398H37.7185C34.6846 8.11211 30.7732 6.34209 26.4648 6.01279V2.92969H29.8828C30.6918 2.92969 31.3477 2.27383 31.3477 1.46484C31.3477 0.655859 30.6918 0 29.8828 0H20.1172C19.3082 0 18.6523 0.655859 18.6523 1.46484C18.6523 2.27383 19.3082 2.92969 20.1172 2.92969H23.5352V6.01279C19.2268 6.34209 15.3154 8.11211 12.2815 10.8398H5.85938V8.53711C7.56436 7.93242 8.78906 6.3042 8.78906 4.39453C8.78906 1.97139 6.81768 0 4.39453 0C1.97139 0 0 1.97139 0 4.39453C0 6.3042 1.22471 7.93242 2.92969 8.53711V12.3047C2.92969 13.1137 3.58555 13.7695 4.39453 13.7695H9.63125C7.59375 16.5503 6.29053 19.9014 6.01279 23.5352H2.92969V20.1172C2.92969 19.3082 2.27383 18.6523 1.46484 18.6523C0.655859 18.6523 0 19.3082 0 20.1172V29.8828C0 30.6918 0.655859 31.3477 1.46484 31.3477C2.27383 31.3477 2.92969 30.6918 2.92969 29.8828V26.4648H6.01279C6.29053 30.0986 7.59365 33.4497 9.63125 36.2305H4.39453C3.58555 36.2305 2.92969 36.8863 2.92969 37.6953V41.4629C1.22471 42.0676 0 43.6958 0 45.6055C0 48.0286 1.97139 50 4.39453 50C6.81768 50 8.78906 48.0286 8.78906 45.6055C8.78906 43.6958 7.56436 42.0676 5.85938 41.4629V39.1602H12.2815C15.3154 41.8879 19.2267 43.6579 23.5352 43.9872V47.0703H20.1172C19.3082 47.0703 18.6523 47.7262 18.6523 48.5352C18.6523 49.3441 19.3082 50 20.1172 50H29.8828C30.6918 50 31.3477 49.3441 31.3477 48.5352C31.3477 47.7262 30.6918 47.0703 29.8828 47.0703H26.4648V43.9872C30.7732 43.6579 34.6846 41.8879 37.7185 39.1602H44.1406V41.4629C42.4356 42.0676 41.2109 43.6958 41.2109 45.6055C41.2109 48.0286 43.1823 50 45.6055 50C48.0286 50 50 48.0286 50 45.6055C50 43.6958 48.7753 42.0676 47.0703 41.4629V37.6953C47.0703 36.8863 46.4145 36.2305 45.6055 36.2305H40.3688C42.4062 33.4497 43.7095 30.0986 43.9872 26.4648H47.0703V29.8828C47.0703 30.6918 47.7262 31.3477 48.5352 31.3477C49.3441 31.3477 50 30.6918 50 29.8828V20.1172C50 19.3082 49.3441 18.6523 48.5352 18.6523ZM45.6055 2.92969C46.4132 2.92969 47.0703 3.58682 47.0703 4.39453C47.0703 5.20225 46.4132 5.85938 45.6055 5.85938C44.7978 5.85938 44.1406 5.20225 44.1406 4.39453C44.1406 3.58682 44.7978 2.92969 45.6055 2.92969ZM4.39453 5.85938C3.58682 5.85938 2.92969 5.20225 2.92969 4.39453C2.92969 3.58682 3.58682 2.92969 4.39453 2.92969C5.20225 2.92969 5.85938 3.58682 5.85938 4.39453C5.85938 5.20225 5.20225 5.85938 4.39453 5.85938ZM4.39453 47.0703C3.58682 47.0703 2.92969 46.4132 2.92969 45.6055C2.92969 44.7978 3.58682 44.1406 4.39453 44.1406C5.20225 44.1406 5.85938 44.7978 5.85938 45.6055C5.85938 46.4132 5.20225 47.0703 4.39453 47.0703ZM45.6055 44.1406C46.4132 44.1406 47.0703 44.7978 47.0703 45.6055C47.0703 46.4132 46.4132 47.0703 45.6055 47.0703C44.7978 47.0703 44.1406 46.4132 44.1406 45.6055C44.1406 44.7978 44.7978 44.1406 45.6055 44.1406ZM25 41.1133C16.1151 41.1133 8.88672 33.8849 8.88672 25C8.88672 16.1151 16.1151 8.88672 25 8.88672C33.8849 8.88672 41.1133 16.1151 41.1133 25C41.1133 33.8849 33.8849 41.1133 25 41.1133Z" fill="#A6CB4B"/>
</g>
<defs>
<clipPath id="clip0_7354_325">
<rect width="50" height="50" fill="white"/>
</clipPath>
</defs>
</svg>
