<svg width="50" height="50" viewBox="0 0 50 50" fill="none" xmlns="http://www.w3.org/2000/svg">
<g clip-path="url(#clip0_7354_309)">
<path d="M49.3214 38.6706L45.3936 33.3945V11.2417C45.3936 8.28252 42.9861 5.875 40.0269 5.875H9.97317C7.01395 5.875 4.60644 8.28252 4.60644 11.2417V33.3945L0.678671 38.6706C-0.0971636 39.7129 -0.21689 41.0816 0.366327 42.2427C0.949447 43.4038 2.11891 44.1252 3.41814 44.1252H46.5818C47.881 44.1252 49.0506 43.4039 49.6336 42.2427C50.2169 41.0816 50.0972 39.7129 49.3214 38.6706ZM7.53375 11.2417C7.53375 9.89663 8.62807 8.80231 9.97317 8.80231H40.0269C41.372 8.80231 42.4663 9.89663 42.4663 11.2417V32.4159H7.53375V11.2417ZM47.0179 40.9289C46.9674 41.0293 46.8438 41.1979 46.5819 41.1979H3.41814C3.15625 41.1979 3.03262 41.0293 2.98217 40.9289C2.93163 40.8285 2.87035 40.6286 3.02676 40.4186L6.80514 35.3432H43.1949L46.9733 40.4186C47.1296 40.6287 47.0683 40.8285 47.0179 40.9289Z" fill="#D74949"/>
<path d="M29.004 11.7295H21.0027C20.1944 11.7295 19.5391 12.3848 19.5391 13.1931C19.5391 14.0015 20.1944 14.6568 21.0027 14.6568H29.004C29.8124 14.6568 30.4677 14.0015 30.4677 13.1931C30.4677 12.3848 29.8124 11.7295 29.004 11.7295Z" fill="#D74949"/>
</g>
<defs>
<clipPath id="clip0_7354_309">
<rect width="50" height="50" fill="white"/>
</clipPath>
</defs>
</svg>
