<svg width="50" height="50" viewBox="0 0 50 50" fill="none" xmlns="http://www.w3.org/2000/svg">
<g clip-path="url(#clip0_7354_338)">
<path d="M48.5348 50H1.46483C0.655854 50 0 49.3441 0 48.5351C0 47.7262 0.655854 47.0703 1.46483 47.0703H48.5348C49.3438 47.0703 49.9996 47.7262 49.9996 48.5351C49.9996 49.3441 49.3438 50 48.5348 50Z" fill="#7951FA"/>
<path d="M10.3476 49.9999H4.48827C3.67929 49.9999 3.02344 49.344 3.02344 48.5351V37.7929C3.02344 36.4468 4.11864 35.3516 5.46482 35.3516H9.37104C10.7172 35.3516 11.8124 36.4468 11.8124 37.7929V48.5351C11.8124 49.344 11.1566 49.9999 10.3476 49.9999ZM5.9531 47.0702H8.88277V38.2812H5.9531V47.0702ZM9.37104 38.2812H9.37202H9.37104Z" fill="#7951FA"/>
<path d="M22.0663 49.9999H16.207C15.398 49.9999 14.7422 49.344 14.7422 48.535V34.2773C14.7422 32.9311 15.8374 31.8359 17.1836 31.8359H21.0898C22.436 31.8359 23.5312 32.9311 23.5312 34.2773V48.535C23.5312 49.344 22.8753 49.9999 22.0663 49.9999ZM17.6719 47.0702H20.6015V34.7656H17.6719V47.0702ZM21.0898 34.7656H21.0908H21.0898Z" fill="#7951FA"/>
<path d="M33.7851 49.9998H27.9258C27.1168 49.9998 26.4609 49.344 26.4609 48.535V28.9062C26.4609 27.5601 27.5561 26.4648 28.9023 26.4648H32.8085C34.1547 26.4648 35.2499 27.5601 35.2499 28.9062V48.535C35.2499 49.344 34.5941 49.9998 33.7851 49.9998ZM29.3906 47.0702H32.3203V29.3945H29.3906V47.0702ZM32.8085 29.3945H32.8095H32.8085Z" fill="#7951FA"/>
<path d="M45.5038 50.0002H39.6445C38.8355 50.0002 38.1797 49.3444 38.1797 48.5354V19.1411C38.1797 17.7949 39.2749 16.6997 40.6211 16.6997H44.5273C45.8735 16.6997 46.9687 17.7949 46.9687 19.1411V48.5354C46.9687 49.3444 46.3128 50.0002 45.5038 50.0002ZM41.1094 47.0706H44.039V19.6294H41.1094V47.0706ZM44.5273 19.6294H44.5283H44.5273Z" fill="#7951FA"/>
<path d="M1.46483 31.4753C0.655854 31.4753 0 30.8195 0 30.0105C0 29.2015 0.655854 28.5456 1.46483 28.5456C10.0786 28.5456 19.4573 25.4089 27.8729 19.7134C35.6152 14.4737 41.7844 7.60459 44.7989 0.867435C45.1293 0.128964 45.9958 -0.201893 46.7342 0.128671C47.4727 0.459039 47.8034 1.32554 47.473 2.06401C44.2419 9.28534 37.6965 16.6027 29.515 22.1396C20.6197 28.1598 10.6578 31.4753 1.46483 31.4753Z" fill="#7951FA"/>
<path d="M48.5338 11.8824C47.8869 11.8824 47.2951 11.4508 47.1198 10.7963L45.1002 3.25917L37.5631 5.27878C36.7813 5.48835 35.9784 5.02448 35.769 4.24304C35.5597 3.4616 36.0233 2.65839 36.8048 2.44902L45.7568 0.0503034C46.5386 -0.159168 47.3415 0.304696 47.5509 1.08604L49.9496 10.0381C50.159 10.8196 49.6953 11.6228 48.9138 11.8321C48.7868 11.8661 48.6593 11.8824 48.5338 11.8824Z" fill="#7951FA"/>
</g>
<defs>
<clipPath id="clip0_7354_338">
<rect width="50" height="50" fill="white"/>
</clipPath>
</defs>
</svg>
